<svg width="111" height="31" viewBox="0 0 111 31" fill="none" xmlns="http://www.w3.org/2000/svg">
<path d="M11.8444 22.9865L10.364 30.3517L8.88358 25.3352L10.364 7.40258L11.8444 22.9865ZM16.8045 25.3352L15.3235 30.3517L13.8431 22.9865L15.3235 7.40258L16.8045 25.3352ZM7.4026 19.2856L5.9222 26.6501L4.44179 21.6336L5.9222 3.70159L7.4026 19.2856ZM21.2457 21.6336L19.7653 26.6501L18.2849 19.2856L19.7653 3.70159L21.2457 21.6336ZM2.9614 15.584L1.4804 22.9486L0 17.932L1.4804 0L2.9614 15.584ZM25.6875 17.932L24.2071 22.9486L22.7267 15.584L24.2071 0L25.6875 17.932Z" fill="white"/>
<path d="M50.5285 15.8157C50.5285 16.9178 50.7776 17.7311 51.2754 18.2556C51.7732 18.78 52.4754 19.0423 53.382 19.0423C54.2976 19.0423 55.0043 18.78 55.5021 18.2556C55.9999 17.7311 56.249 16.9178 56.249 15.8157V10.5087H57.2086V15.8554C57.2086 17.1977 56.8668 18.2114 56.1823 18.8959C55.5067 19.5804 54.5732 19.9223 53.382 19.9223C52.1909 19.9223 51.2528 19.5804 50.5683 18.8959C49.8838 18.2114 49.542 17.1977 49.542 15.8554V10.5087H50.5285V15.8157ZM82.15 10.4284C82.674 10.4284 83.1941 10.504 83.7099 10.6551C84.2256 10.7973 84.6705 10.9972 85.0438 11.255L84.7107 12.0417C84.3103 11.7751 83.8831 11.5798 83.43 11.4554C82.9858 11.331 82.5547 11.2685 82.1369 11.2685C81.5772 11.2685 81.1141 11.3441 80.7496 11.4952C80.385 11.6463 80.1146 11.8508 79.9364 12.1086C79.7676 12.3575 79.6829 12.6421 79.6829 12.9621C79.6829 13.3265 79.7852 13.6198 79.9897 13.842C80.203 14.0642 80.4785 14.2377 80.8167 14.3622C81.1631 14.4867 81.5414 14.5978 81.9499 14.6955C82.359 14.7933 82.7631 14.8998 83.1634 15.0154C83.5725 15.1309 83.9458 15.2821 84.2834 15.4688C84.6297 15.6466 84.9058 15.8866 85.1097 16.1888C85.3231 16.491 85.4304 16.8868 85.4304 17.3757C85.4304 17.829 85.3055 18.2511 85.0564 18.6423C84.8079 19.0244 84.4258 19.3355 83.91 19.5755C83.4037 19.8066 82.7499 19.9223 81.9499 19.9223C81.2565 19.9223 80.5902 19.8111 79.9502 19.5889C79.319 19.3578 78.8296 19.0646 78.4832 18.709L78.8697 17.9492C79.1985 18.2691 79.6383 18.5401 80.1899 18.7624C80.7496 18.9757 81.3369 19.0822 81.9499 19.0822C82.5365 19.0822 83.0122 19.0111 83.3767 18.869C83.75 18.7178 84.0211 18.518 84.1905 18.2691C84.3681 18.0202 84.4565 17.7446 84.4565 17.4424C84.4565 17.078 84.3505 16.7842 84.1372 16.5619C83.9326 16.3398 83.6609 16.1668 83.3234 16.0424C82.9852 15.909 82.6118 15.7933 82.2034 15.6956C81.7943 15.5977 81.3852 15.4952 80.9767 15.3885C80.5676 15.273 80.1899 15.1218 79.8435 14.9351C79.506 14.7485 79.2299 14.5045 79.0159 14.2023C78.812 13.8911 78.7097 13.4862 78.7097 12.9884C78.7097 12.5263 78.8296 12.104 79.0693 11.7219C79.3184 11.3308 79.6967 11.0198 80.203 10.7887C80.71 10.5487 81.3588 10.4284 82.15 10.4284ZM48.2729 19.8426H47.2331L46.1173 17.3487H43.1829V16.5491H45.7595L43.5125 11.5283L41.2846 16.5087H41.2766L40.8618 17.4523L39.7926 19.8426H38.7656L43.0328 10.5087H44.0058L48.2729 19.8426ZM63.676 10.5087C64.4672 10.5087 65.1474 10.6376 65.7158 10.8953C66.2849 11.1442 66.721 11.5084 67.0228 11.9885C67.334 12.4595 67.4896 13.0329 67.4896 13.7084C67.4896 14.3662 67.334 14.9355 67.0228 15.4155C66.721 15.8866 66.2849 16.2509 65.7158 16.5087C65.601 16.5591 65.4805 16.6027 65.3563 16.6428L67.6365 19.8426H66.556L64.4277 16.8395C64.1899 16.867 63.9389 16.8824 63.676 16.8824H63.186V16.0424H63.649C64.5827 16.0424 65.2892 15.8378 65.7692 15.429C66.258 15.02 66.5027 14.4462 66.5027 13.7084C66.5027 12.9618 66.258 12.3838 65.7692 11.975C65.2892 11.5661 64.5827 11.3616 63.649 11.3616H61.1693V15.3978H61.1674V17.6201H61.1693V19.8426H60.1823V10.5087H63.676ZM77.8325 19.8426H76.7929L75.6766 17.3487H72.7408V16.5491H75.319L73.0721 11.5283L70.844 16.5087H70.834L70.3458 17.6201L69.3519 19.8426H68.3248L72.5921 10.5087H73.5652L77.8325 19.8426ZM93.9806 11.3616H88.567V14.682H88.577V15.5221H88.567V18.9891H94.1801V19.8426H87.58V10.5087H93.9806V11.3616ZM97.4868 18.9891H102.714V19.8426H96.5005V10.5087H97.4868V18.9891ZM105.339 18.9891H110.566V19.8426H104.352V10.5087H105.339V18.9891ZM93.394 15.5221H90.7994V14.682H93.394V15.5221Z" fill="white"/>
</svg>
